<?xml version="1.0" encoding="iso-8859-1"?>
<!-- Uploaded to: SVG Repo, www.svgrepo.com, Generator: SVG Repo Mixer Tools -->
<svg height="800px" width="800px" version="1.1" id="Layer_1" xmlns="http://www.w3.org/2000/svg" xmlns:xlink="http://www.w3.org/1999/xlink" 
	 viewBox="0 0 476.127 476.127" xml:space="preserve">
<g>
	<path style="fill:#BDDBFF;" d="M218.063,312.542c0-11.046,8.954-20,20-20V73.585c-72.072,0-133.604,50.031-149.343,118.804
		C38.476,200.564,0,244.263,0,296.779c0,58.318,47.445,105.763,105.763,105.763h132.3v-70
		C227.018,332.542,218.063,323.588,218.063,312.542z M158.063,332.542c-11.046,0-20-8.954-20-20s8.954-20,20-20
		c11.046,0,20,8.954,20,20S169.109,332.542,158.063,332.542z"/>
	<path style="fill:#9BC9FF;" d="M387.407,192.388c-15.739-68.772-77.271-118.804-149.343-118.804v218.958c11.046,0,20,8.954,20,20
		s-8.954,20-20,20v70h132.3c58.318,0,105.763-47.445,105.763-105.763C476.127,244.263,437.651,200.564,387.407,192.388z
		 M318.063,332.542c-11.046,0-20-8.954-20-20s8.954-20,20-20c11.046,0,20,8.954,20,20S329.109,332.542,318.063,332.542z"/>
	<circle style="fill:#2488FF;" cx="318.063" cy="312.542" r="20"/>
	<circle style="fill:#2488FF;" cx="158.063" cy="312.542" r="20"/>
	<circle style="fill:#2488FF;" cx="238.063" cy="312.542" r="20"/>
</g>
</svg>